# Blender v2.93.3 OBJ File: 'mushroom.blend'
# www.blender.org
mtllib mushroom.mtl
o Cube_Cube.001
v -0.463179 -0.559344 0.463179
v -0.396893 0.542270 0.396893
v -0.463179 -0.559344 -0.463179
v -0.396893 0.542270 -0.396893
v 0.463179 -0.559344 0.463179
v 0.396893 0.542270 0.396893
v 0.463179 -0.559344 -0.463179
v 0.396893 0.542270 -0.396893
v -0.506343 -0.613607 0.000000
v -0.506343 0.022936 0.506343
v -0.433880 0.592805 0.000000
v -0.506343 0.022936 -0.506343
v 0.000000 -0.613607 -0.506343
v 0.000000 0.592805 -0.433880
v 0.506343 0.022936 -0.506343
v 0.506343 -0.613607 0.000000
v 0.433880 0.592805 0.000000
v 0.506343 0.022936 0.506343
v 0.000000 -0.613607 0.506343
v 0.000000 0.592805 0.433880
v 0.000000 -0.776397 0.000000
v 0.000000 0.022936 0.635835
v 0.635835 0.022936 0.000000
v 0.000000 0.022936 -0.635835
v -0.635835 0.022936 0.000000
v -0.298545 1.250675 -0.000000
v -0.273095 1.200140 -0.273095
v 0.000000 1.250675 -0.298545
v 0.273095 1.200140 -0.273095
v 0.298545 1.250675 -0.000000
v 0.273095 1.200140 0.273095
v 0.000000 1.250675 0.298545
v -0.273095 1.200140 0.273095
v 0.000000 1.402279 -0.000000
vt 0.500000 0.125000
vt 0.625000 0.125000
vt 0.625000 0.250000
vt 0.500000 0.250000
vt 0.500000 0.375000
vt 0.625000 0.375000
vt 0.625000 0.500000
vt 0.500000 0.500000
vt 0.500000 0.625000
vt 0.625000 0.625000
vt 0.625000 0.750000
vt 0.500000 0.750000
vt 0.500000 0.875000
vt 0.625000 0.875000
vt 0.625000 1.000000
vt 0.500000 1.000000
vt 0.250000 0.625000
vt 0.375000 0.625000
vt 0.375000 0.750000
vt 0.250000 0.750000
vt 0.625000 0.250000
vt 0.625000 0.375000
vt 0.625000 0.625000
vt 0.625000 0.750000
vt 0.625000 0.875000
vt 0.625000 0.000000
vt 0.625000 0.000000
vt 0.625000 0.125000
vt 0.125000 0.625000
vt 0.125000 0.750000
vt 0.125000 0.500000
vt 0.250000 0.500000
vt 0.375000 0.500000
vt 0.375000 0.875000
vt 0.375000 1.000000
vt 0.375000 0.375000
vt 0.375000 0.250000
vt 0.375000 0.125000
vt 0.375000 0.000000
vt 0.500000 0.000000
vt 0.750000 0.625000
vt 0.875000 0.625000
vt 0.875000 0.750000
vt 0.750000 0.750000
vt 0.625000 0.500000
vt 0.750000 0.500000
vt 0.875000 0.500000
vt 0.625000 1.000000
vn -0.9389 0.2874 -0.1891
vn 0.1891 0.2874 -0.9389
vn 0.9389 0.2874 0.1891
vn -0.1891 0.2874 0.9389
vn 0.2224 -0.9492 0.2224
vn -0.1211 0.2028 -0.9717
vn 0.9717 0.2028 0.1211
vn 0.1211 0.2028 0.9717
vn -0.9717 0.2028 0.1211
vn -0.2224 -0.9492 0.2224
vn -0.2224 -0.9492 -0.2224
vn 0.2224 -0.9492 -0.2224
vn -0.1813 -0.1442 0.9728
vn 0.1813 -0.1442 0.9728
vn 0.1891 0.2874 0.9389
vn 0.9728 -0.1442 0.1813
vn 0.9728 -0.1442 -0.1813
vn 0.9389 0.2874 -0.1891
vn 0.1813 -0.1442 -0.9728
vn -0.1813 -0.1442 -0.9728
vn -0.1891 0.2874 -0.9389
vn -0.9728 -0.1442 -0.1813
vn -0.9728 -0.1442 0.1813
vn -0.9389 0.2874 0.1891
vn -0.3279 0.8860 0.3279
vn 0.3279 0.8860 0.3279
vn 0.3279 0.8860 -0.3279
vn -0.3279 0.8860 -0.3279
vn -0.9717 0.2028 -0.1211
vn -0.1211 0.2028 0.9717
vn 0.9717 0.2028 -0.1211
vn 0.1211 0.2028 -0.9717
g Cube_Cube.001_Material.002
usemtl Material.002
s off
f 25/1/1 11/2/1 4/3/1 12/4/1
f 24/5/2 14/6/2 8/7/2 15/8/2
f 23/9/3 17/10/3 6/11/3 18/12/3
f 22/13/4 20/14/4 2/15/4 10/16/4
f 21/17/5 16/18/5 5/19/5 19/20/5
f 14/6/6 4/3/6 27/21/6 28/22/6
f 6/11/7 17/10/7 30/23/7 31/24/7
f 20/14/8 6/11/8 31/24/8 32/25/8
f 11/2/9 2/26/9 33/27/9 26/28/9
f 9/29/10 21/17/10 19/20/10 1/30/10
f 3/31/11 13/32/11 21/17/11 9/29/11
f 13/32/12 7/33/12 16/18/12 21/17/12
f 19/34/13 22/13/13 10/16/13 1/35/13
f 5/19/14 18/12/14 22/13/14 19/34/14
f 18/12/15 6/11/15 20/14/15 22/13/15
f 16/18/16 23/9/16 18/12/16 5/19/16
f 7/33/17 15/8/17 23/9/17 16/18/17
f 15/8/18 8/7/18 17/10/18 23/9/18
f 13/36/19 24/5/19 15/8/19 7/33/19
f 3/37/20 12/4/20 24/5/20 13/36/20
f 12/4/21 4/3/21 14/6/21 24/5/21
f 9/38/22 25/1/22 12/4/22 3/37/22
f 1/39/23 10/40/23 25/1/23 9/38/23
f 10/40/24 2/26/24 11/2/24 25/1/24
f 34/41/25 26/42/25 33/43/25 32/44/25
f 30/23/26 34/41/26 32/44/26 31/24/26
f 29/45/27 28/46/27 34/41/27 30/23/27
f 28/46/28 27/47/28 26/42/28 34/41/28
f 4/3/29 11/2/29 26/28/29 27/21/29
f 2/15/30 20/14/30 32/25/30 33/48/30
f 17/10/31 8/7/31 29/45/31 30/23/31
f 8/7/32 14/6/32 28/22/32 29/45/32
o Sphere
v -0.083877 1.506011 -0.233234
v -0.036496 1.180899 -0.877688
v 0.079320 1.529795 -0.164922
v 0.660564 1.271864 -0.702891
v 0.824174 1.024495 -0.829117
v 0.150220 1.516994 0.000000
v 0.950502 1.301265 0.000000
v 1.159770 1.103150 0.000000
v 0.082622 1.507142 0.164922
v 0.655782 1.304669 0.702891
v 0.826080 1.011415 0.829117
v -0.109988 1.466859 0.324751
v -0.083712 1.286562 0.845909
v 0.016684 0.816000 1.172548
v -0.249503 1.446527 0.277955
v -0.663804 1.100321 0.646470
v -0.817258 0.789013 0.829116
v -0.085521 1.517286 0.000000
v -0.314673 1.472375 0.000000
v -0.994090 0.993605 0.000000
v -1.093719 0.786256 -0.000000
v -0.247075 1.482227 -0.164921
v -0.790523 1.049958 -0.586540
v -0.844278 0.788797 -0.712766
v 0.005634 0.891821 -1.056197
v -0.070480 1.414084 -0.154320
v -0.040009 1.205007 -0.819964
v 0.037497 1.429820 -0.109117
v 0.533732 1.288624 -0.579802
v 0.700497 0.895784 -0.688170
v 0.082226 1.436339 0.000000
v 0.771383 1.323259 0.000000
v 0.982564 0.936893 0.000000
v 0.037497 1.429820 0.109118
v 0.533731 1.288624 0.579802
v 0.700497 0.895784 0.688170
v -0.070480 1.414084 0.154320
v -0.040009 1.205007 0.819964
v 0.019520 0.796540 0.973217
v -0.178457 1.398348 0.109117
v -0.613750 1.121391 0.579802
v -0.661456 0.697295 0.688170
v -0.070982 1.417529 0.000000
v -0.223186 1.391829 0.000000
v -0.851402 1.086756 0.000000
v -0.943523 0.656187 -0.000000
v -0.178457 1.398348 -0.109117
v -0.613750 1.121391 -0.579802
v -0.661456 0.697295 -0.688170
v 0.019521 0.796540 -0.973217
vt 0.500000 0.687500
vt 0.625000 0.687500
vt 0.625000 0.937500
vt 0.500000 0.937500
vt 0.625000 0.437500
vt 0.750000 0.437500
vt 0.750000 0.687500
vt 0.250000 0.687500
vt 0.375000 0.687500
vt 0.375000 0.937500
vt 0.250000 0.937500
vt 0.750000 0.937500
vt 0.515625 1.000000
vt 0.875000 0.687500
vt 0.875000 0.437500
vt 0.375000 0.437500
vt 0.500000 0.437500
vt 1.000000 0.687500
vt 0.125000 0.687500
vt 0.125000 0.937500
vt 1.000000 0.937500
vt 0.390625 1.000000
vt 0.000000 0.687500
vt 0.875000 0.937500
vt 0.250000 0.437500
vt 0.265625 1.000000
vt 0.125000 0.437500
vt 0.140625 1.000000
vt 1.000000 0.437500
vt 0.015625 1.000000
vt 0.000000 0.437500
vt 0.890625 1.000000
vt 0.765625 1.000000
vt 0.640625 1.000000
vt 0.500000 0.687500
vt 0.500000 0.937500
vt 0.625000 0.937500
vt 0.625000 0.687500
vt 0.625000 0.437500
vt 0.750000 0.687500
vt 0.750000 0.437500
vt 0.250000 0.687500
vt 0.250000 0.937500
vt 0.375000 0.937500
vt 0.375000 0.687500
vt 0.750000 0.937500
vt 0.515625 1.000000
vt 0.875000 0.687500
vt 0.875000 0.437500
vt 0.375000 0.437500
vt 0.500000 0.437500
vt 1.000000 0.687500
vt 1.000000 0.937500
vt 0.125000 0.937500
vt 0.125000 0.687500
vt 0.390625 1.000000
vt 0.875000 0.937500
vt 0.000000 0.687500
vt 0.250000 0.437500
vt 0.265625 1.000000
vt 0.125000 0.437500
vt 0.140625 1.000000
vt 1.000000 0.437500
vt 0.015625 1.000000
vt 0.000000 0.437500
vt 0.890625 1.000000
vt 0.765625 1.000000
vt 0.640625 1.000000
vn 0.2749 0.9523 -0.1325
vn 0.1435 0.5298 -0.8359
vn 0.0438 0.9472 0.3175
vn 0.0047 0.8979 -0.4403
vn 0.0012 0.9970 0.0769
vn -0.3843 0.4535 -0.8042
vn 0.7059 0.6290 0.3258
vn -0.5572 0.8134 0.1672
vn 0.2493 0.9620 0.1113
vn 0.0012 0.9982 0.0601
vn -0.5628 0.8161 -0.1312
vn 0.1809 0.5482 0.8165
vn -0.0844 0.9856 0.1467
vn -0.3730 0.5240 0.7657
vn -0.1877 0.9726 0.1369
vn -0.8128 0.5012 0.2970
vn -0.1906 0.9723 0.1351
vn -0.8832 0.3676 -0.2913
vn -0.1923 0.9811 -0.0202
vn -0.1640 0.9853 -0.0488
vn -0.3671 0.8618 0.3499
vn -0.1240 0.9911 -0.0488
vn 0.6785 0.6596 -0.3235
vn -0.3164 0.8366 -0.4472
vn -0.1607 -0.9791 0.1243
vn -0.3114 -0.3733 0.8739
vn 0.0133 -0.9538 -0.3002
vn 0.0133 -0.9538 0.3002
vn 0.1219 -0.9925 0.0093
vn 0.4050 -0.2689 0.8739
vn -0.8180 -0.4471 -0.3620
vn 0.4334 -0.8926 -0.1243
vn -0.1607 -0.9791 -0.1243
vn 0.1219 -0.9925 -0.0093
vn 0.4334 -0.8926 0.1243
vn -0.3114 -0.3733 -0.8739
vn 0.1349 -0.9906 -0.0226
vn 0.4050 -0.2689 -0.8739
vn 0.1534 -0.9879 -0.0226
vn 0.9116 -0.1950 -0.3620
vn 0.1665 -0.9860 -0.0093
vn 0.9116 -0.1950 0.3620
vn 0.1665 -0.9860 0.0093
vn 0.1534 -0.9879 0.0226
vn 0.2594 -0.9179 -0.3002
vn 0.1349 -0.9906 0.0226
vn -0.8180 -0.4471 0.3620
vn 0.2594 -0.9179 0.3002
vn 0.6364 -0.7449 -0.2003
vn 0.3162 -0.7438 -0.5890
vn 0.6218 -0.7608 0.1857
vn 0.2917 -0.9204 0.2602
vn -0.0418 -0.9553 0.2926
vn -0.5080 -0.8351 0.2111
vn -0.5280 -0.8187 -0.2258
vn -0.2147 -0.6473 -0.7313
g Sphere_Sphere_Material.001
usemtl Material.001
s off
f 41/49/33 38/50/33 37/51/33 40/52/33
f 39/53/34 59/54/34 36/55/34 38/50/34
f 47/56/35 44/57/35 43/58/35 46/59/35
f 38/50/36 36/55/36 35/60/36 37/51/36
f 37/51/37 52/61/37 40/52/37
f 57/62/38 36/55/38 59/54/38 58/63/38
f 45/64/39 42/65/39 41/49/39 44/57/39
f 54/66/40 50/67/40 49/68/40 53/69/40
f 44/57/41 41/49/41 40/52/41 43/58/41
f 40/52/42 52/70/42 43/58/42
f 57/62/43 54/71/43 53/69/43 56/72/43
f 48/73/44 45/64/44 44/57/44 47/56/44
f 43/58/45 52/74/45 46/59/45
f 51/75/46 48/73/46 47/56/46 50/67/46
f 46/59/47 52/76/47 49/68/47
f 55/77/48 51/75/48 50/67/48 54/66/48
f 49/68/49 52/78/49 53/69/49
f 58/63/50 55/79/50 54/71/50 57/62/50
f 53/69/51 52/80/51 56/72/51
f 56/72/52 52/81/52 35/60/52
f 50/67/53 47/56/53 46/59/53 49/68/53
f 35/60/54 52/82/54 37/51/54
f 42/65/55 39/53/55 38/50/55 41/49/55
f 56/72/56 35/60/56 36/55/56 57/62/56
f 66/83/57 65/84/57 62/85/57 63/86/57
f 64/87/58 63/86/58 61/88/58 84/89/58
f 72/90/59 71/91/59 68/92/59 69/93/59
f 63/86/60 62/85/60 60/94/60 61/88/60
f 62/85/61 65/84/61 77/95/61
f 82/96/62 83/97/62 84/89/62 61/88/62
f 70/98/63 69/93/63 66/83/63 67/99/63
f 79/100/64 78/101/64 74/102/64 75/103/64
f 69/93/65 68/92/65 65/84/65 66/83/65
f 65/84/66 68/92/66 77/104/66
f 82/96/67 81/105/67 78/101/67 79/106/67
f 73/107/68 72/90/68 69/93/68 70/98/68
f 68/92/69 71/91/69 77/108/69
f 76/109/70 75/103/70 72/90/70 73/107/70
f 71/91/71 74/102/71 77/110/71
f 80/111/72 79/100/72 75/103/72 76/109/72
f 74/102/73 78/101/73 77/112/73
f 83/97/74 82/96/74 79/106/74 80/113/74
f 78/101/75 81/105/75 77/114/75
f 81/105/76 60/94/76 77/115/76
f 75/103/77 74/102/77 71/91/77 72/90/77
f 60/94/78 62/85/78 77/116/78
f 67/99/79 66/83/79 63/86/79 64/87/79
f 81/105/80 82/96/80 61/88/80 60/94/80
f 39/53/81 42/65/81 67/99/81 64/87/81
f 59/54/82 39/53/82 64/87/82 84/89/82
f 42/65/83 45/64/83 70/98/83 67/99/83
f 45/64/84 48/73/84 73/107/84 70/98/84
f 48/73/85 51/75/85 76/109/85 73/107/85
f 51/75/86 55/77/86 80/111/86 76/109/86
f 55/79/87 58/63/87 83/97/87 80/113/87
f 58/63/88 59/54/88 84/89/88 83/97/88
